<?xml version="1.0" standalone="no"?>
<!DOCTYPE svg PUBLIC "-//W3C//DTD SVG 20010904//EN"
 "http://www.w3.org/TR/2001/REC-SVG-20010904/DTD/svg10.dtd">
<svg version="1.0" xmlns="http://www.w3.org/2000/svg"
 width="400.000000pt" height="288.000000pt" viewBox="0 0 400.000000 288.000000"
 preserveAspectRatio="xMidYMid meet">
<metadata>
Created by potrace 1.16, written by Peter Selinger 2001-2019
</metadata>
<g transform="translate(0.000000,288.000000) scale(0.100000,-0.100000)"
fill="#000000" stroke="none">
<path d="M885 2544 c-421 -426 -415 -420 -415 -444 0 -22 61 -90 81 -90 6 0
24 -13 39 -30 15 -16 33 -30 40 -30 7 0 25 -13 40 -30 15 -16 33 -30 40 -30 7
0 25 -13 40 -30 15 -16 33 -30 40 -30 7 0 25 -13 40 -30 15 -16 33 -30 40 -30
7 0 25 -13 40 -30 15 -16 33 -30 40 -30 7 0 25 -13 40 -30 15 -16 34 -30 42
-30 7 0 20 -9 28 -20 8 -11 21 -20 30 -20 9 0 22 -9 30 -20 15 -21 70 -28 70
-10 0 6 5 10 10 10 6 0 10 -18 10 -40 0 -33 3 -40 20 -40 11 0 20 5 20 10 0 6
9 10 20 10 11 0 20 5 20 10 0 6 9 10 20 10 11 0 20 5 20 10 0 6 7 10 16 10 40
0 44 20 44 229 0 135 -4 202 -11 207 -6 4 -57 -40 -120 -102 -103 -103 -109
-107 -127 -91 -10 9 -23 17 -29 17 -6 0 -13 4 -15 8 -3 8 -95 82 -161 130 -18
12 -52 38 -77 57 -25 19 -62 46 -82 60 -21 14 -38 27 -38 30 0 3 142 147 315
320 l315 315 243 0 c231 0 243 -1 257 -20 8 -11 21 -20 30 -20 9 0 22 -9 30
-20 8 -12 26 -20 42 -20 15 0 28 -4 28 -10 0 -5 9 -10 20 -10 11 0 20 -4 20
-10 0 -5 18 -10 40 -10 22 0 40 -4 40 -10 0 -6 47 -10 120 -10 73 0 120 4 120
10 0 6 18 10 40 10 22 0 40 5 40 10 0 6 14 10 30 10 17 0 30 5 30 10 0 6 9 10
20 10 11 0 20 5 20 10 0 6 9 10 20 10 11 0 20 5 20 10 0 6 8 10 18 10 10 0 24
9 32 20 14 19 26 20 257 20 l243 0 316 -316 c235 -235 313 -319 303 -325 -8
-5 -16 -9 -19 -9 -3 0 -17 -10 -30 -22 -14 -13 -41 -34 -60 -48 -39 -27 -39
-27 -98 -75 -24 -19 -47 -35 -50 -35 -4 0 -24 -16 -44 -35 -20 -19 -40 -35
-44 -35 -4 0 -21 -12 -36 -27 l-28 -27 -73 71 c-133 130 -160 154 -171 150 -8
-3 -12 -246 -14 -845 l-2 -842 -288 -2 -287 -3 -3 -52 c-2 -29 -7 -53 -13 -53
-5 0 -9 -16 -9 -35 l0 -35 400 0 400 0 0 710 0 710 38 0 c26 0 42 6 52 20 8
11 21 20 28 20 8 0 27 14 42 30 15 17 33 30 40 30 7 0 25 14 40 30 15 17 32
30 37 30 5 0 29 18 53 40 24 22 48 40 53 40 5 0 22 14 37 30 15 17 33 30 40
30 7 0 25 14 40 30 15 16 33 30 40 30 7 0 25 13 40 30 15 16 33 30 40 30 7 0
25 13 40 30 15 16 35 30 43 30 17 0 27 21 27 55 0 18 -95 119 -375 399 l-374
376 -380 0 c-236 0 -382 -4 -386 -10 -7 -11 -48 -30 -128 -59 -62 -22 -201
-30 -212 -11 -3 6 -14 10 -24 10 -10 0 -50 16 -87 35 l-69 35 -375 -1 -375 -1
-330 -334z"/>
<path d="M1540 1540 c-8 -5 -29 -10 -47 -10 -17 0 -35 -4 -38 -10 -3 -5 -17
-10 -31 -10 -33 0 -143 -48 -249 -109 -27 -16 -56 -30 -63 -30 -7 -1 -31 -10
-55 -20 -23 -11 -60 -25 -82 -32 -22 -6 -49 -15 -60 -20 -59 -23 -261 -39
-375 -28 -134 12 -184 20 -195 30 -5 5 -19 9 -31 9 -13 0 -26 5 -29 10 -3 6
-17 10 -30 10 -13 0 -27 5 -31 11 -10 17 -126 69 -155 69 -44 0 -69 -33 -69
-95 0 -66 7 -85 31 -85 10 0 19 -4 19 -10 0 -5 9 -10 20 -10 11 0 20 -4 20
-10 0 -5 9 -10 20 -10 11 0 20 -4 20 -10 0 -5 9 -10 19 -10 11 0 23 -4 26 -10
3 -5 17 -10 31 -10 13 0 24 -4 24 -10 0 -5 14 -10 30 -10 17 0 30 -4 30 -10 0
-6 27 -10 60 -10 33 0 60 -4 60 -10 0 -6 81 -10 224 -10 139 0 227 4 231 10 3
6 28 10 56 10 27 0 49 5 49 10 0 6 14 10 30 10 17 0 30 5 30 10 0 6 14 10 30
10 17 0 30 5 30 10 0 6 9 10 20 10 11 0 20 5 20 10 0 6 14 10 30 10 17 0 30 5
30 10 0 6 9 10 20 10 11 0 20 5 20 10 0 6 9 10 20 10 11 0 20 5 20 10 0 6 8
10 18 10 10 0 24 9 32 20 8 12 26 20 42 20 15 0 28 5 28 10 0 6 11 10 24 10
14 0 28 5 31 10 3 6 19 10 36 10 16 0 29 5 29 10 0 6 23 10 50 10 28 0 50 5
50 10 0 6 57 10 150 10 93 0 150 -4 150 -10 0 -6 27 -10 60 -10 33 0 60 -4 60
-10 0 -5 14 -10 30 -10 17 0 30 -4 30 -10 0 -5 14 -10 30 -10 17 0 30 -4 30
-10 0 -5 9 -10 20 -10 11 0 20 -4 20 -10 0 -5 8 -10 18 -10 10 0 24 -9 32 -20
22 -31 113 -28 145 5 36 35 34 93 -2 126 -54 49 -241 128 -358 151 -70 14
-466 21 -485 8z"/>
<path d="M1605 1014 c-153 -25 -160 -26 -170 -34 -5 -4 -26 -10 -45 -14 -19
-3 -100 -39 -180 -79 -80 -40 -179 -83 -220 -96 -41 -13 -84 -27 -95 -32 -40
-16 -93 -21 -254 -26 -109 -3 -167 -1 -174 6 -6 6 -22 11 -35 11 -51 0 -125
26 -245 86 -71 36 -151 46 -175 22 -7 -7 -12 -37 -12 -68 0 -60 21 -100 54
-100 9 0 16 -4 16 -10 0 -5 9 -10 20 -10 11 0 20 -4 20 -10 0 -5 9 -10 20 -10
11 0 20 -4 20 -10 0 -5 9 -10 20 -10 11 0 20 -4 20 -10 0 -5 14 -10 30 -10 17
0 30 -4 30 -10 0 -5 18 -10 40 -10 22 0 40 -4 40 -10 0 -5 23 -10 50 -10 28 0
50 -4 50 -10 0 -6 73 -10 200 -10 127 0 200 4 200 10 0 6 23 10 50 10 28 0 50
5 50 10 0 6 18 10 40 10 22 0 40 5 40 10 0 6 14 10 30 10 17 0 30 5 30 10 0 6
14 10 30 10 17 0 30 5 30 10 0 6 9 10 20 10 11 0 20 5 20 10 0 6 9 10 20 10
11 0 20 5 20 10 0 6 9 10 20 10 11 0 20 5 20 10 0 6 9 10 20 10 11 0 20 5 20
10 0 6 9 10 20 10 11 0 20 5 20 10 0 6 9 10 20 10 11 0 20 5 20 10 0 6 9 10
20 10 11 0 20 5 20 10 0 6 14 10 30 10 17 0 30 5 30 10 0 6 18 10 40 10 22 0
40 5 40 10 0 6 30 10 70 10 40 0 70 4 70 10 0 6 30 10 70 10 40 0 70 -4 70
-10 0 -6 30 -10 70 -10 40 0 70 -4 70 -10 0 -5 18 -10 40 -10 22 0 40 -4 40
-10 0 -5 14 -10 30 -10 17 0 30 -4 30 -10 0 -5 11 -10 25 -10 14 0 25 -4 25
-10 0 -5 7 -10 15 -10 8 0 15 -4 15 -10 0 -5 9 -10 20 -10 11 0 20 -4 20 -10
0 -5 14 -10 30 -10 17 0 30 -4 30 -10 0 -5 14 -10 30 -10 17 0 30 5 30 10 0 6
7 10 16 10 47 0 61 86 21 132 -43 50 -221 128 -342 150 -168 31 -336 39 -440
22z"/>
<path d="M1560 480 c-8 -5 -29 -10 -47 -10 -17 0 -35 -4 -38 -10 -3 -5 -16
-10 -28 -10 -36 0 -96 -25 -257 -104 -83 -42 -160 -76 -170 -76 -11 0 -22 -4
-25 -10 -3 -6 -17 -10 -30 -10 -13 0 -26 -4 -29 -9 -3 -5 -23 -11 -43 -14 -21
-3 -72 -11 -113 -18 -197 -34 -407 1 -617 102 -94 45 -112 47 -141 16 -45 -47
-21 -177 32 -177 9 0 16 -4 16 -10 0 -5 9 -10 20 -10 11 0 20 -4 20 -10 0 -5
9 -10 20 -10 11 0 20 -4 20 -10 0 -5 14 -10 30 -10 17 0 30 -4 30 -10 0 -5 14
-10 30 -10 17 0 30 -4 30 -10 0 -5 18 -10 40 -10 22 0 40 -4 40 -10 0 -6 27
-10 60 -10 33 0 60 -4 60 -10 0 -6 63 -10 170 -10 107 0 170 4 170 10 0 6 23
10 50 10 28 0 50 5 50 10 0 6 18 10 40 10 22 0 40 5 40 10 0 6 18 10 40 10 22
0 40 5 40 10 0 6 9 10 20 10 11 0 20 5 20 10 0 6 14 10 30 10 17 0 30 5 30 10
0 6 9 10 20 10 11 0 20 5 20 10 0 6 9 10 20 10 11 0 20 5 20 10 0 6 9 10 20
10 11 0 20 3 20 8 0 8 49 32 67 32 7 0 13 5 13 10 0 6 9 10 20 10 11 0 20 5
20 10 0 6 9 10 20 10 11 0 20 5 20 10 0 6 14 10 30 10 17 0 30 5 30 10 0 6 27
10 60 10 33 0 60 4 60 10 0 6 50 10 130 10 80 0 130 -4 130 -10 0 -5 23 -10
50 -10 28 0 50 -4 50 -10 0 -5 18 -10 40 -10 22 0 40 -4 40 -10 0 -5 14 -10
30 -10 17 0 30 -4 30 -10 0 -5 9 -10 20 -10 11 0 20 -4 20 -10 0 -5 9 -10 20
-10 11 0 20 -4 20 -10 0 -5 9 -10 20 -10 11 0 20 -4 20 -10 0 -5 25 -10 55
-10 46 0 60 4 80 25 29 28 34 87 10 112 -21 20 -226 123 -247 123 -9 0 -19 4
-22 9 -5 8 -21 12 -136 33 -77 14 -411 21 -430 8z"/>
</g>
</svg>
